<mxfile host="app.diagrams.net" agent="Mozilla/5.0 (Windows NT 10.0; Win64; x64) AppleWebKit/537.36 (KHTML, like Gecko) Chrome/128.0.0.0 YaBrowser/24.10.0.0 Safari/537.36" version="25.0.3">
  <diagram name="Страница — 1" id="98AbnQke1BDtXuMy3oKg">
    <mxGraphModel dx="2560" dy="989" grid="1" gridSize="10" guides="1" tooltips="1" connect="1" arrows="1" fold="1" page="1" pageScale="1" pageWidth="827" pageHeight="1169" math="0" shadow="0">
      <root>
        <mxCell id="0" />
        <mxCell id="1" parent="0" />
        <mxCell id="manQAS9bvijGitDvoUid-8" style="edgeStyle=orthogonalEdgeStyle;rounded=0;orthogonalLoop=1;jettySize=auto;html=1;entryX=0.5;entryY=0;entryDx=0;entryDy=0;" parent="1" source="X5QwtZST2doXWiQ8Q9un-1" target="X5QwtZST2doXWiQ8Q9un-4" edge="1">
          <mxGeometry relative="1" as="geometry" />
        </mxCell>
        <mxCell id="X5QwtZST2doXWiQ8Q9un-1" value="Начало" style="ellipse;whiteSpace=wrap;html=1;" parent="1" vertex="1">
          <mxGeometry x="350" y="370" width="120" height="70" as="geometry" />
        </mxCell>
        <mxCell id="X5QwtZST2doXWiQ8Q9un-2" value="#include &amp;lt;iostream&amp;gt;&lt;div&gt;&lt;span style=&quot;background-color: initial;&quot;&gt;#include &amp;lt;math.h&amp;gt;&lt;/span&gt;&lt;/div&gt;&lt;div&gt;&lt;span style=&quot;background-color: initial;&quot;&gt;using namespace std;&lt;/span&gt;&lt;/div&gt;" style="strokeWidth=2;html=1;shape=mxgraph.flowchart.annotation_2;align=left;labelPosition=right;pointerEvents=1;" parent="1" vertex="1">
          <mxGeometry x="580" y="440" width="50" height="100" as="geometry" />
        </mxCell>
        <mxCell id="manQAS9bvijGitDvoUid-9" style="edgeStyle=orthogonalEdgeStyle;rounded=0;orthogonalLoop=1;jettySize=auto;html=1;entryX=0.5;entryY=0;entryDx=0;entryDy=0;" parent="1" source="X5QwtZST2doXWiQ8Q9un-4" target="X5QwtZST2doXWiQ8Q9un-8" edge="1">
          <mxGeometry relative="1" as="geometry" />
        </mxCell>
        <mxCell id="X5QwtZST2doXWiQ8Q9un-4" value="int main()" style="shape=process;whiteSpace=wrap;html=1;backgroundOutline=1;" parent="1" vertex="1">
          <mxGeometry x="350" y="510" width="120" height="60" as="geometry" />
        </mxCell>
        <mxCell id="X5QwtZST2doXWiQ8Q9un-7" value="" style="endArrow=none;dashed=1;html=1;dashPattern=1 3;strokeWidth=2;rounded=0;entryX=0;entryY=0.5;entryDx=0;entryDy=0;entryPerimeter=0;" parent="1" target="X5QwtZST2doXWiQ8Q9un-2" edge="1">
          <mxGeometry width="50" height="50" relative="1" as="geometry">
            <mxPoint x="410" y="490" as="sourcePoint" />
            <mxPoint x="440" y="580" as="targetPoint" />
          </mxGeometry>
        </mxCell>
        <mxCell id="manQAS9bvijGitDvoUid-10" style="edgeStyle=orthogonalEdgeStyle;rounded=0;orthogonalLoop=1;jettySize=auto;html=1;entryX=0.5;entryY=0;entryDx=0;entryDy=0;" parent="1" source="X5QwtZST2doXWiQ8Q9un-8" target="manQAS9bvijGitDvoUid-5" edge="1">
          <mxGeometry relative="1" as="geometry" />
        </mxCell>
        <mxCell id="X5QwtZST2doXWiQ8Q9un-8" value="float x=3;&lt;div&gt;&lt;br&gt;&lt;/div&gt;" style="rounded=0;whiteSpace=wrap;html=1;" parent="1" vertex="1">
          <mxGeometry x="350" y="620" width="120" height="60" as="geometry" />
        </mxCell>
        <mxCell id="manQAS9bvijGitDvoUid-12" style="edgeStyle=orthogonalEdgeStyle;rounded=0;orthogonalLoop=1;jettySize=auto;html=1;entryX=0.5;entryY=0;entryDx=0;entryDy=0;" parent="1" source="manQAS9bvijGitDvoUid-1" target="manQAS9bvijGitDvoUid-2" edge="1">
          <mxGeometry relative="1" as="geometry" />
        </mxCell>
        <mxCell id="manQAS9bvijGitDvoUid-1" value="float froiz(float x)" style="ellipse;whiteSpace=wrap;html=1;" parent="1" vertex="1">
          <mxGeometry x="100" y="510" width="120" height="80" as="geometry" />
        </mxCell>
        <mxCell id="manQAS9bvijGitDvoUid-2" value="return 3-4/x;" style="ellipse;whiteSpace=wrap;html=1;" parent="1" vertex="1">
          <mxGeometry x="100" y="645" width="120" height="80" as="geometry" />
        </mxCell>
        <mxCell id="manQAS9bvijGitDvoUid-11" style="edgeStyle=orthogonalEdgeStyle;rounded=0;orthogonalLoop=1;jettySize=auto;html=1;exitX=0.5;exitY=1;exitDx=0;exitDy=0;entryX=0.5;entryY=0;entryDx=0;entryDy=0;" parent="1" source="manQAS9bvijGitDvoUid-3" edge="1">
          <mxGeometry relative="1" as="geometry">
            <mxPoint x="-9.999999999999545" y="650" as="targetPoint" />
          </mxGeometry>
        </mxCell>
        <mxCell id="manQAS9bvijGitDvoUid-3" value="float f(float x)" style="ellipse;whiteSpace=wrap;html=1;" parent="1" vertex="1">
          <mxGeometry x="-70" y="510" width="120" height="80" as="geometry" />
        </mxCell>
        <mxCell id="manQAS9bvijGitDvoUid-15" style="edgeStyle=orthogonalEdgeStyle;rounded=0;orthogonalLoop=1;jettySize=auto;html=1;entryX=0.5;entryY=0;entryDx=0;entryDy=0;" parent="1" source="manQAS9bvijGitDvoUid-5" target="manQAS9bvijGitDvoUid-14" edge="1">
          <mxGeometry relative="1" as="geometry" />
        </mxCell>
        <mxCell id="manQAS9bvijGitDvoUid-5" value="int k=0;" style="rounded=0;whiteSpace=wrap;html=1;" parent="1" vertex="1">
          <mxGeometry x="350" y="740" width="120" height="40" as="geometry" />
        </mxCell>
        <mxCell id="manQAS9bvijGitDvoUid-13" value="return 3*x-4*log(x)-5;" style="ellipse;whiteSpace=wrap;html=1;" parent="1" vertex="1">
          <mxGeometry x="-70" y="650" width="120" height="80" as="geometry" />
        </mxCell>
        <mxCell id="MokWbabOSb1m6iWSNBK1-5" style="edgeStyle=orthogonalEdgeStyle;rounded=0;orthogonalLoop=1;jettySize=auto;html=1;exitX=0;exitY=0.5;exitDx=0;exitDy=0;entryX=0.5;entryY=0;entryDx=0;entryDy=0;" parent="1" source="manQAS9bvijGitDvoUid-14" target="manQAS9bvijGitDvoUid-16" edge="1">
          <mxGeometry relative="1" as="geometry" />
        </mxCell>
        <mxCell id="MokWbabOSb1m6iWSNBK1-8" style="edgeStyle=orthogonalEdgeStyle;rounded=0;orthogonalLoop=1;jettySize=auto;html=1;exitX=1;exitY=0.5;exitDx=0;exitDy=0;" parent="1" source="manQAS9bvijGitDvoUid-14" target="MokWbabOSb1m6iWSNBK1-7" edge="1">
          <mxGeometry relative="1" as="geometry" />
        </mxCell>
        <mxCell id="manQAS9bvijGitDvoUid-14" value="&lt;p style=&quot;margin-right: -42.5pt; text-indent: -3cm;&quot; align=&quot;center&quot; class=&quot;MsoNormal&quot;&gt;&lt;font&gt;&amp;nbsp; &amp;nbsp; &amp;nbsp; &amp;nbsp; &amp;nbsp; while (&lt;/font&gt;&lt;span style=&quot;background-color: initial;&quot;&gt;&lt;font&gt;(abs(x-fi(x)&lt;/font&gt;&lt;/span&gt;&lt;span style=&quot;text-indent: -3cm; background-color: initial;&quot;&gt;))&lt;/span&gt;&lt;span style=&quot;text-indent: -3cm; background-color: initial;&quot;&gt;&amp;gt;0.000001)&lt;/span&gt;&lt;/p&gt;" style="rhombus;whiteSpace=wrap;html=1;" parent="1" vertex="1">
          <mxGeometry x="250" y="850" width="320" height="80" as="geometry" />
        </mxCell>
        <mxCell id="manQAS9bvijGitDvoUid-19" style="edgeStyle=orthogonalEdgeStyle;rounded=0;orthogonalLoop=1;jettySize=auto;html=1;entryX=0.5;entryY=0;entryDx=0;entryDy=0;" parent="1" source="manQAS9bvijGitDvoUid-16" target="manQAS9bvijGitDvoUid-18" edge="1">
          <mxGeometry relative="1" as="geometry" />
        </mxCell>
        <mxCell id="manQAS9bvijGitDvoUid-16" value="k=k+1;" style="rounded=0;whiteSpace=wrap;html=1;" parent="1" vertex="1">
          <mxGeometry x="160" y="950" width="120" height="60" as="geometry" />
        </mxCell>
        <mxCell id="MokWbabOSb1m6iWSNBK1-3" style="edgeStyle=orthogonalEdgeStyle;rounded=0;orthogonalLoop=1;jettySize=auto;html=1;entryX=0.5;entryY=0;entryDx=0;entryDy=0;" parent="1" source="manQAS9bvijGitDvoUid-18" target="manQAS9bvijGitDvoUid-20" edge="1">
          <mxGeometry relative="1" as="geometry" />
        </mxCell>
        <mxCell id="manQAS9bvijGitDvoUid-18" value="&lt;p style=&quot;margin-right: -42.5pt; text-indent: -3cm;&quot; align=&quot;center&quot; class=&quot;MsoNormal&quot;&gt;&lt;font&gt;&amp;nbsp; &amp;nbsp; &amp;nbsp; &amp;nbsp; &amp;nbsp; &amp;nbsp; &amp;nbsp; &amp;nbsp; &amp;nbsp; x=fi(x);&lt;/font&gt;&lt;/p&gt;" style="rounded=0;whiteSpace=wrap;html=1;" parent="1" vertex="1">
          <mxGeometry x="160" y="1070" width="120" height="60" as="geometry" />
        </mxCell>
        <mxCell id="manQAS9bvijGitDvoUid-20" value="&lt;p style=&quot;margin-right: -42.5pt; text-indent: -3cm;&quot; align=&quot;center&quot; class=&quot;MsoNormal&quot;&gt;&lt;font&gt;&amp;nbsp; &amp;nbsp; &amp;nbsp; &amp;nbsp; &amp;nbsp; &amp;nbsp; &amp;nbsp; &amp;nbsp;cout&amp;lt;&amp;lt;&#39;x&#39;&amp;lt;&amp;lt;k&amp;lt;&amp;lt;&quot; = &quot;&lt;/font&gt;&lt;/p&gt;&lt;p style=&quot;margin-right: -42.5pt; text-indent: -3cm;&quot; align=&quot;center&quot; class=&quot;MsoNormal&quot;&gt;&lt;font&gt;&amp;nbsp; &amp;nbsp; &amp;nbsp; &amp;nbsp; &amp;nbsp; &amp;nbsp; &amp;nbsp; &amp;nbsp; &amp;nbsp; &amp;lt;&amp;lt;x&amp;lt;&amp;lt;endl;&lt;/font&gt;&lt;/p&gt;" style="rounded=0;whiteSpace=wrap;html=1;" parent="1" vertex="1">
          <mxGeometry x="160" y="1190" width="120" height="60" as="geometry" />
        </mxCell>
        <mxCell id="manQAS9bvijGitDvoUid-27" value="{" style="text;html=1;align=center;verticalAlign=middle;whiteSpace=wrap;rounded=0;" parent="1" vertex="1">
          <mxGeometry x="390" y="600" width="60" height="30" as="geometry" />
        </mxCell>
        <mxCell id="manQAS9bvijGitDvoUid-28" value="{" style="text;html=1;align=center;verticalAlign=middle;whiteSpace=wrap;rounded=0;" parent="1" vertex="1">
          <mxGeometry x="170" y="910" width="60" height="30" as="geometry" />
        </mxCell>
        <mxCell id="manQAS9bvijGitDvoUid-29" value="{" style="text;html=1;align=center;verticalAlign=middle;whiteSpace=wrap;rounded=0;" parent="1" vertex="1">
          <mxGeometry x="-30" y="610" width="60" height="30" as="geometry" />
        </mxCell>
        <mxCell id="manQAS9bvijGitDvoUid-30" value="{" style="text;html=1;align=center;verticalAlign=middle;whiteSpace=wrap;rounded=0;" parent="1" vertex="1">
          <mxGeometry x="150" y="610" width="60" height="30" as="geometry" />
        </mxCell>
        <mxCell id="manQAS9bvijGitDvoUid-31" value="}" style="text;html=1;align=center;verticalAlign=middle;whiteSpace=wrap;rounded=0;" parent="1" vertex="1">
          <mxGeometry x="-40" y="730" width="60" height="30" as="geometry" />
        </mxCell>
        <mxCell id="manQAS9bvijGitDvoUid-32" value="}" style="text;html=1;align=center;verticalAlign=middle;whiteSpace=wrap;rounded=0;" parent="1" vertex="1">
          <mxGeometry x="130" y="730" width="60" height="30" as="geometry" />
        </mxCell>
        <mxCell id="manQAS9bvijGitDvoUid-34" value="}" style="text;html=1;align=center;verticalAlign=middle;whiteSpace=wrap;rounded=0;" parent="1" vertex="1">
          <mxGeometry x="210" y="1260" width="60" height="30" as="geometry" />
        </mxCell>
        <mxCell id="MokWbabOSb1m6iWSNBK1-7" value="return0;" style="ellipse;whiteSpace=wrap;html=1;" parent="1" vertex="1">
          <mxGeometry x="560" y="930" width="120" height="80" as="geometry" />
        </mxCell>
        <mxCell id="MokWbabOSb1m6iWSNBK1-9" value="0" style="text;html=1;align=center;verticalAlign=middle;whiteSpace=wrap;rounded=0;" parent="1" vertex="1">
          <mxGeometry x="580" y="860" width="60" height="30" as="geometry" />
        </mxCell>
        <mxCell id="MokWbabOSb1m6iWSNBK1-10" value="1" style="text;html=1;align=center;verticalAlign=middle;resizable=0;points=[];autosize=1;strokeColor=none;fillColor=none;" parent="1" vertex="1">
          <mxGeometry x="225" y="848" width="30" height="30" as="geometry" />
        </mxCell>
        <mxCell id="MokWbabOSb1m6iWSNBK1-11" value="{" style="text;html=1;align=center;verticalAlign=middle;resizable=0;points=[];autosize=1;strokeColor=none;fillColor=none;" parent="1" vertex="1">
          <mxGeometry x="635" y="898" width="30" height="30" as="geometry" />
        </mxCell>
        <mxCell id="MokWbabOSb1m6iWSNBK1-12" value="}" style="text;html=1;align=center;verticalAlign=middle;resizable=0;points=[];autosize=1;strokeColor=none;fillColor=none;" parent="1" vertex="1">
          <mxGeometry x="635" y="1008" width="30" height="30" as="geometry" />
        </mxCell>
        <mxCell id="MokWbabOSb1m6iWSNBK1-13" value="" style="endArrow=classic;html=1;rounded=0;exitX=0.5;exitY=1;exitDx=0;exitDy=0;" parent="1" source="MokWbabOSb1m6iWSNBK1-7" edge="1">
          <mxGeometry width="50" height="50" relative="1" as="geometry">
            <mxPoint x="230" y="1120" as="sourcePoint" />
            <mxPoint x="620" y="1300" as="targetPoint" />
          </mxGeometry>
        </mxCell>
        <mxCell id="MokWbabOSb1m6iWSNBK1-14" value="" style="endArrow=classic;html=1;rounded=0;" parent="1" edge="1">
          <mxGeometry width="50" height="50" relative="1" as="geometry">
            <mxPoint x="220" y="1250" as="sourcePoint" />
            <mxPoint x="220" y="1300" as="targetPoint" />
          </mxGeometry>
        </mxCell>
        <mxCell id="MokWbabOSb1m6iWSNBK1-15" value="" style="endArrow=classic;html=1;rounded=0;" parent="1" edge="1">
          <mxGeometry width="50" height="50" relative="1" as="geometry">
            <mxPoint x="220" y="1300" as="sourcePoint" />
            <mxPoint x="410" y="1300" as="targetPoint" />
          </mxGeometry>
        </mxCell>
        <mxCell id="MokWbabOSb1m6iWSNBK1-16" value="" style="endArrow=classic;html=1;rounded=0;" parent="1" edge="1">
          <mxGeometry width="50" height="50" relative="1" as="geometry">
            <mxPoint x="620" y="1300" as="sourcePoint" />
            <mxPoint x="410" y="1300" as="targetPoint" />
          </mxGeometry>
        </mxCell>
        <mxCell id="ZyrJnI79bMPl20hA5Q1j-1" value="}" style="text;html=1;align=center;verticalAlign=middle;resizable=0;points=[];autosize=1;strokeColor=none;fillColor=none;" vertex="1" parent="1">
          <mxGeometry x="395" y="1298" width="30" height="30" as="geometry" />
        </mxCell>
      </root>
    </mxGraphModel>
  </diagram>
</mxfile>
